<svg xmlns="http://www.w3.org/2000/svg" viewBox="0 0 288 288"><defs><style>.cls-1{fill:#0d71ba;}.cls-2{fill:none;}.cls-3{fill:#fff;}</style></defs><g id="Background"><circle class="cls-1" cx="144" cy="144" r="144"/></g><g id="Collab"><path class="cls-2" d="M68,98H92v24H68Z"/><path class="cls-3" d="M79.85,148.45a24.64,24.64,0,0,1,24.21-29H135.8V103H104.56c-19.7,0-37.81,13.18-41.7,32.49A41.05,41.05,0,0,0,103,185h32.8V168.6H105.48C93.31,168.6,82,160.43,79.85,148.45Zm31.35,3.75h65.6V135.8H111.2ZM185,103H152.2v16.4h30.32c12.17,0,23.52,8.17,25.63,20.15a24.64,24.64,0,0,1-24.21,29H152.2V185h31.24c19.7,0,37.81-13.18,41.7-32.49A41.05,41.05,0,0,0,185,103Z"/></g></svg>