<svg xmlns="http://www.w3.org/2000/svg" viewBox="0 0 288 288"><defs><style>.cls-1{fill:#0d71ba;}.cls-2{fill:none;}.cls-3{fill:#fff;}</style></defs><g id="Background"><circle class="cls-1" cx="144" cy="144" r="144"/></g><g id="Open"><path class="cls-2" d="M54,54H234V234H54Z"/><path class="cls-3" d="M144.51,71.54a75,75,0,1,0,75,75A75,75,0,0,0,144.51,71.54ZM136.5,206A59.93,59.93,0,0,1,84,146.54a60.54,60.54,0,0,1,1.58-13.42L121.5,169v7.5a15,15,0,0,0,15,15Zm51.75-21.59A14.88,14.88,0,0,0,174,174h-7.5V151.5A7.53,7.53,0,0,0,159,144H114V129h15a7.52,7.52,0,0,0,7.5-7.5v-15h15a15,15,0,0,0,15-15V88.42a59.88,59.88,0,0,1,21.75,96Z"/></g></svg>