<svg xmlns="http://www.w3.org/2000/svg" viewBox="0 0 288 288"><defs><style>.cls-1{fill:#0d71ba;}.cls-2{fill:none;}.cls-3{fill:#fff;}</style></defs><g id="Background"><circle class="cls-1" cx="144" cy="144" r="144"/></g><g id="Team"><rect class="cls-2" x="89" y="18" width="24" height="24"/><path class="cls-3" d="M143.89,141.29a75.83,75.83,0,0,1,30.28,6.43,21.31,21.31,0,0,1,12.56,19.49v11.57H101.05v-11.5a21.17,21.17,0,0,1,12.57-19.49A74.55,74.55,0,0,1,143.89,141.29ZM85.56,146A14.28,14.28,0,1,0,71.28,131.7,14.32,14.32,0,0,0,85.56,146Zm8.07,7.86a48.44,48.44,0,0,0-27.92,3.42c-5.28,2.29-8.71,7.43-7.5,13.21v8.31h35.7v-8.59C89.13,164.26,90.77,158.69,93.63,153.84ZM199.8,146a14.28,14.28,0,1,0-14.28-14.28A14.31,14.31,0,0,0,199.8,146Zm29.77,24.49c-1.21-5.78-4.63-10.92-9.92-13.21a48.44,48.44,0,0,0-27.92-3.42c2.86,4.85,4.5,10.42,2.14,16.35v8.59h35.7ZM142.68,96a21.42,21.42,0,1,1-21.42,21.42A21.39,21.39,0,0,1,142.68,96Z"/></g></svg>