<svg xmlns="http://www.w3.org/2000/svg" viewBox="0 0 288 288"><defs><style>.cls-1{fill:#0d71ba;}.cls-2{fill:none;}.cls-3{fill:#fff;}</style></defs><g id="Background"><circle class="cls-1" cx="144" cy="144" r="144"/></g><g id="DataSkills"><rect class="cls-2" x="240" y="46" width="20" height="20"/><polygon class="cls-3" points="168.58 128.85 176.4 111.83 193.32 104.12 176.4 96.4 168.58 79.38 161.06 96.4 143.85 104.12 161.06 111.83 168.58 128.85"/><polygon class="cls-3" points="84.49 148.64 88.44 132.81 104.28 128.85 88.44 124.89 84.49 109.06 80.53 124.89 64.7 128.85 80.53 132.81 84.49 148.64"/><path class="cls-3" d="M208.16,109.06a14.79,14.79,0,0,0-13.36,21.18L165,160a14.54,14.54,0,0,0-12.76,0l-10-10a13.61,13.61,0,0,0,1.58-6.33,14.84,14.84,0,1,0-28.2,6.33L85.87,179.8a15,15,0,1,0,7,7l29.78-29.78a14.61,14.61,0,0,0,12.76,0l10,10a13.64,13.64,0,0,0-1.58,6.33,14.84,14.84,0,1,0,28.2-6.33l29.78-29.78c10.19,5,21.17-2.87,21.17-13.36A14.82,14.82,0,0,0,208.16,109.06Z"/></g></svg>