<svg xmlns="http://www.w3.org/2000/svg" viewBox="0 0 3449 562"><defs><style>.cls-1{fill:#185394;}.cls-2{fill:#1e6ba5;}.cls-3{fill:#114575;}.cls-4{fill:#fff;}.cls-5{font-size:182.32px;fill:#3d4551;font-family:SourceSansPro-Bold, Source Sans Pro;font-weight:700;}.cls-6{letter-spacing:-0.03em;}.cls-7{letter-spacing:0em;}.cls-8{letter-spacing:-0.01em;}</style></defs><g id="Layer_1" data-name="Layer 1"><g id="Cube"><polygon class="cls-1" points="302.34 281.51 58.54 139.69 302.34 0 546.14 140.76 302.34 281.51"/><polygon class="cls-2" points="301.7 562.05 58 421.35 59.06 139.96 301.7 280.65 301.7 562.05"/><polygon class="cls-3" points="545.39 421.36 301.7 562.06 301.7 280.65 545.39 139.95 545.39 421.36"/></g><g id="Cols"><polygon class="cls-4" points="230.4 521.96 230.4 279.05 270.84 302.77 270.84 545.01 230.4 521.96"/><polygon class="cls-4" points="156.97 479.12 156.97 298.2 197.41 322.85 197.41 502.53 156.97 479.12"/><polygon class="cls-4" points="86.73 438.68 86.73 320.55 127.17 343.95 127.17 462.09 86.73 438.68"/></g></g><g id="Layer_2" data-name="Layer 2"><text class="cls-5" transform="translate(596.26 350.18)">HHS Offi<tspan class="cls-6" x="678.39" y="0">c</tspan><tspan x="758.43" y="0">e </tspan><tspan class="cls-7" x="890.79" y="0">o</tspan><tspan x="991.06" y="0">f the Chi</tspan><tspan class="cls-7" x="1657.6" y="0">e</tspan><tspan x="1751.13" y="0">f Da</tspan><tspan class="cls-8" x="2064.16" y="0">t</tspan><tspan x="2131.8" y="0">a Offi</tspan><tspan class="cls-6" x="2561.52" y="0">c</tspan><tspan x="2641.55" y="0">er</tspan></text></g></svg>